<?xml version="1.0" encoding="UTF-8"?>
<svg id="Capa_2" data-name="Capa 2" xmlns="http://www.w3.org/2000/svg" viewBox="0 0 735 861">
  <defs>
    <style>
      .cls-1 {
        fill: #00a5b4;
      }

      .cls-2 {
        fill: #3a3a3a;
      }
    </style>
  </defs>
  <path class="cls-1" d="M430.7,100.57c171.18,23.74,290.71,181.76,266.98,352.95-23.74,171.19-181.76,290.72-352.94,266.98-171.19-23.74-290.72-181.76-266.98-352.95C101.5,196.36,259.52,76.83,430.7,100.57h0Z"/>
  <path class="cls-2" d="M28.04,275.73l.39-2.78c-.13,.93-.27,1.85-.39,2.78h0Z"/>
  <path class="cls-2" d="M334.71,28.86l-77.88,561.55c11.34,2.14,22.92,3.56,34.68,4.3L369.26,34.07c-11.29-2.42-22.81-4.18-34.55-5.21h0Z"/>
  <path class="cls-2" d="M400.9,42.72l-76.57,552.16c12.16-.63,24.14-1.95,35.83-4.05L434.25,56.57c-10.77-5.28-21.88-9.96-33.35-13.85h0Z"/>
  <path class="cls-2" d="M464.69,73.86l-70.53,508.6c12.86-4.01,25.31-8.89,37.3-14.6L496.6,98.07c-10.04-8.8-20.71-16.88-31.91-24.21h0Z"/>
  <path class="cls-2" d="M266.29,31.1l-74.69,538.6c10.82,4.95,22.01,9.19,33.5,12.77L302.02,27.85c-12.13,.32-24.03,1.47-35.72,3.26h0Z"/>
  <path class="cls-2" d="M525.4,127.22l-58.3,420.38c14.19-9.49,27.49-20.19,39.71-32l48.1-346.85c-8.6-14.75-18.49-28.65-29.51-41.54h0Z"/>
  <path class="cls-2" d="M593.35,304.92c-.65-27.83-5.35-54.61-13.42-79.85l-33.72,243.12c30.99-46.7,48.53-102.99,47.13-163.27h0Z"/>
  <path class="cls-2" d="M195.32,51.72l-66.37,478.61c10.14,8.38,20.85,16.05,32.08,22.97L232.45,38.34c-12.78,3.6-25.16,8.11-37.13,13.38h0Z"/>
  <path class="cls-2" d="M120.53,99.97l-50.46,363.84c8.82,13.85,18.86,26.83,29.87,38.9L159.89,70.45c-13.99,8.71-27.15,18.6-39.36,29.52h0Z"/>
  <path class="cls-2" d="M28.43,272.95l-.39,2.78c-1.75,13.86-2.51,28.03-2.17,42.42,.77,33.23,7.28,64.97,18.47,94.37L81.81,142.36c-27.93,37.55-46.8,82.17-53.38,130.59h0Z"/>
</svg>