<?xml version="1.0" encoding="UTF-8"?>
<svg id="Capa_2" data-name="Capa 2" xmlns="http://www.w3.org/2000/svg" viewBox="0 0 735 861">
  <defs>
    <style>
      .cls-1 {
        fill: #00a5b4;
      }

      .cls-2 {
        fill: #3a3a3a;
      }
    </style>
  </defs>
  <polygon class="cls-1" points="709.83 144.05 709.83 860.5 342.53 860.5 342.53 144.05 709.83 144.05 709.83 144.05"/>
  <polygon class="cls-2" points="498.4 178.98 484.64 165.23 537.36 112.5 551.12 126.26 498.4 178.98 498.4 178.98"/>
  <polygon class="cls-2" points="551.12 165.23 537.36 178.98 484.64 126.26 498.4 112.5 551.12 165.23 551.12 165.23"/>
  <polygon class="cls-2" points="498.4 317.57 484.64 303.82 537.36 251.09 551.12 264.84 498.4 317.57 498.4 317.57"/>
  <polygon class="cls-2" points="551.12 303.82 537.36 317.57 484.64 264.84 498.4 251.09 551.12 303.82 551.12 303.82"/>
  <polygon class="cls-2" points="498.4 456.16 484.64 442.41 537.36 389.67 551.12 403.44 498.4 456.16 498.4 456.16"/>
  <polygon class="cls-2" points="551.12 442.41 537.36 456.16 484.64 403.44 498.4 389.67 551.12 442.41 551.12 442.41"/>
  <polygon class="cls-2" points="498.4 594.74 484.64 580.99 537.36 528.27 551.12 542.02 498.4 594.74 498.4 594.74"/>
  <polygon class="cls-2" points="551.12 580.99 537.36 594.74 484.64 542.02 498.4 528.27 551.12 580.99 551.12 580.99"/>
  <polygon class="cls-2" points="498.4 733.34 484.64 719.58 537.36 666.86 551.12 680.61 498.4 733.34 498.4 733.34"/>
  <polygon class="cls-2" points="551.12 719.58 537.36 733.34 484.64 680.61 498.4 666.86 551.12 719.58 551.12 719.58"/>
  <polygon class="cls-2" points="359 178.98 345.24 165.23 397.96 112.5 411.72 126.26 359 178.98 359 178.98"/>
  <polygon class="cls-2" points="411.72 165.23 397.96 178.98 345.24 126.26 359 112.5 411.72 165.23 411.72 165.23"/>
  <polygon class="cls-2" points="359 317.57 345.24 303.82 397.96 251.09 411.72 264.84 359 317.57 359 317.57"/>
  <polygon class="cls-2" points="411.72 303.82 397.96 317.57 345.24 264.84 359 251.09 411.72 303.82 411.72 303.82"/>
  <polygon class="cls-2" points="359 456.16 345.24 442.41 397.96 389.67 411.72 403.44 359 456.16 359 456.16"/>
  <polygon class="cls-2" points="411.72 442.41 397.96 456.16 345.24 403.44 359 389.67 411.72 442.41 411.72 442.41"/>
  <polygon class="cls-2" points="359 594.74 345.24 580.99 397.96 528.27 411.72 542.02 359 594.74 359 594.74"/>
  <polygon class="cls-2" points="411.72 580.99 397.96 594.74 345.24 542.02 359 528.27 411.72 580.99 411.72 580.99"/>
  <polygon class="cls-2" points="359 733.34 345.24 719.58 397.96 666.86 411.72 680.61 359 733.34 359 733.34"/>
  <polygon class="cls-2" points="411.72 719.58 397.96 733.34 345.24 680.61 359 666.86 411.72 719.58 411.72 719.58"/>
  <polygon class="cls-2" points="229.32 178.98 215.57 165.23 268.29 112.5 282.04 126.26 229.32 178.98 229.32 178.98"/>
  <polygon class="cls-2" points="282.04 165.23 268.29 178.98 215.57 126.26 229.32 112.5 282.04 165.23 282.04 165.23"/>
  <polygon class="cls-2" points="229.32 317.57 215.57 303.82 268.29 251.09 282.04 264.84 229.32 317.57 229.32 317.57"/>
  <polygon class="cls-2" points="282.04 303.82 268.29 317.57 215.57 264.84 229.32 251.09 282.04 303.82 282.04 303.82"/>
  <polygon class="cls-2" points="229.32 456.16 215.57 442.41 268.29 389.67 282.04 403.44 229.32 456.16 229.32 456.16"/>
  <polygon class="cls-2" points="282.04 442.41 268.29 456.16 215.57 403.44 229.32 389.67 282.04 442.41 282.04 442.41"/>
  <polygon class="cls-2" points="229.32 594.74 215.57 580.99 268.29 528.27 282.04 542.02 229.32 594.74 229.32 594.74"/>
  <polygon class="cls-2" points="282.04 580.99 268.29 594.74 215.57 542.02 229.32 528.27 282.04 580.99 282.04 580.99"/>
  <polygon class="cls-2" points="229.32 733.34 215.57 719.58 268.29 666.86 282.04 680.61 229.32 733.34 229.32 733.34"/>
  <polygon class="cls-2" points="282.04 719.58 268.29 733.34 215.57 680.61 229.32 666.86 282.04 719.58 282.04 719.58"/>
</svg>