<?xml version="1.0" encoding="UTF-8"?>
<svg id="Capa_2" data-name="Capa 2" xmlns="http://www.w3.org/2000/svg" viewBox="0 0 735 861">
  <defs>
    <style>
      .cls-1 {
        fill: #27bfe2;
      }
    </style>
  </defs>
  <path class="cls-1" d="M552.39,606.51l-49.91-157.28-48.93,154.19-42.87-135.08,130.67-97.21h-94.48l76.7-57.06,130.67,97.21-49.91-157.28,130.67-97.21h-161.51L523.57-.5l-49.91,157.28h-161.51l11.91,8.86h-63.23L210.93,8.36l-49.91,157.28H-.5l130.67,97.21-49.91,157.28,52.06-38.73,116.85,86.93-49.91,157.28,130.67-97.21,104.99,78.1h-143.86l130.67,97.21-49.91,157.28,130.67-97.21,130.67,97.21-49.91-157.28,130.67-97.21h-161.51ZM321.39,240.75l-18.36,57.85-11.35-35.75,29.7-22.1Zm-175.25,130.37l64.79-48.2,64.79,48.2H146.14Zm189.07-140.65l38-28.27,69.61,51.78-37.17,117.13h-25.81l-44.63-140.65Z"/>
</svg>